# xmcd
#
# Track frame offsets:
#	187
#	12187
#	21125
#	25562
#	29987
#	36555
#	48425
#	58672
#	67967
#	76410
#	82030
#	100287
#	108715
#	114232
#	121422
#	128712
#	137077
#	143375
#	149372
#	154420
#	159795
#	180127
#	202477
#	209460
#	216265
#	222535
#	228135
#	233165
#	239517
#	255335
#	260492
#	266605
#	274512
#	281457
#	291570
#	297760
#	303347
#	309892
#
# Disc length: 4255 seconds
#
# Revision: 1
# Processed by: cddbd v1.5.1PL0 Copyright (c) Steve Scherf et al.
# Submitted via: CDex 1.50Beta5
#
DISCID=33109d26
DTITLE=松尾早人　レジェンドラ・オーケストラ - 黄金勇者ゴルドラン　オリジナル・サウンドトラック2
DYEAR=1900
DGENRE=Music
TTITLE0=グレート・ゴルドラン
TTITLE1=カッコよくいこうぜ
TTITLE2=勇者むかし話
TTITLE3=獣王合体レオンカイザー
TTITLE4=シュヴァン・シュタイン
TTITLE5=暗黒
TTITLE6=史上最大のピンチ
TTITLE7=渚の勇者たち〜シリーズ三部作(第1回)
TTITLE8=ナイスバトルだぜ
TTITLE9=我が名はイーター・イーザック
TTITLE10=夢の翼(フルコーラス・ヴァージョン)
TTITLE11=渚の勇者たち〜シリーズ三部作(第2回)
TTITLE12=シリアス・ワルザック
TTITLE13=兄の思い
TTITLE14=海賊戦艦キャプテンシャーク
TTITLE15=シリアス艦隊
TTITLE16=シャランラ五段活用
TTITLE17=呼んでいるのはだれ?
TTITLE18=あこがれ
TTITLE19=きっとハッピーエンド
TTITLE20=短編コント「愛の催眠術」
TTITLE21=ふらふらロマンス
TTITLE22=未来都市
TTITLE23=緊迫
TTITLE24=救出作戦
TTITLE25=絶体絶命
TTITLE26=タイムリミット
TTITLE27=渚の勇者たち〜シリーズ三部作(最終回)
TTITLE28=午前0時のアドベンチャー(フルコーラス・ヴァージョン)
TTITLE29=T−シークレット
TTITLE30=共和国皇帝陛下
TTITLE31=野望
TTITLE32=苦戦
TTITLE33=一撃必殺
TTITLE34=兆し
TTITLE35=オレたちの宝物
TTITLE36=惑星レジェンドラ
TTITLE37=そして未来は
EXTD=
EXTT0=
EXTT1=
EXTT2=
EXTT3=
EXTT4=
EXTT5=
EXTT6=
EXTT7=
EXTT8=
EXTT9=
EXTT10=
EXTT11=
EXTT12=
EXTT13=
EXTT14=
EXTT15=
EXTT16=
EXTT17=
EXTT18=
EXTT19=
EXTT20=
EXTT21=
EXTT22=
EXTT23=
EXTT24=
EXTT25=
EXTT26=
EXTT27=
EXTT28=
EXTT29=
EXTT30=
EXTT31=
EXTT32=
EXTT33=
EXTT34=
EXTT35=
EXTT36=
EXTT37=
PLAYORDER=
